<svg xmlns="http://www.w3.org/2000/svg" viewBox="0 0 1600 900" width="1600" height="900" preserveAspectRatio="xMidYMid slice" role="img" aria-label="Arka plan">
  <defs>
    <linearGradient id="sky" x1="0" y1="0" x2="1" y2="1">
      <stop offset="0" stop-color="#0b1220" />
      <stop offset="0.55" stop-color="#132a4d" />
      <stop offset="1" stop-color="#0b1220" />
    </linearGradient>
    <linearGradient id="bar" x1="0" y1="1" x2="0" y2="0">
      <stop offset="0" stop-color="#1d4ed8" stop-opacity="0.15" />
      <stop offset="1" stop-color="#60a5fa" stop-opacity="0.55" />
    </linearGradient>
  </defs>

  <rect width="1600" height="900" fill="url(#sky)" />

  <g opacity="0.35">
    <path d="M0 640 L200 600 L400 660 L600 540 L800 610 L1000 470 L1200 560 L1400 430 L1600 520" fill="none" stroke="#60a5fa" stroke-width="3" />
    <path d="M0 720 L200 700 L400 740 L600 660 L800 700 L1000 600 L1200 665 L1400 570 L1600 640" fill="none" stroke="#38bdf8" stroke-width="2" stroke-dasharray="8 10" />
  </g>

  <g>
    <rect x="120" y="700" width="70" height="140" rx="8" fill="url(#bar)" />
    <rect x="260" y="640" width="70" height="200" rx="8" fill="url(#bar)" />
    <rect x="400" y="750" width="70" height="90" rx="8" fill="url(#bar)" />
    <rect x="540" y="600" width="70" height="240" rx="8" fill="url(#bar)" />
    <rect x="680" y="690" width="70" height="150" rx="8" fill="url(#bar)" />
    <rect x="820" y="560" width="70" height="280" rx="8" fill="url(#bar)" />
    <rect x="960" y="720" width="70" height="120" rx="8" fill="url(#bar)" />
    <rect x="1100" y="620" width="70" height="220" rx="8" fill="url(#bar)" />
    <rect x="1240" y="680" width="70" height="160" rx="8" fill="url(#bar)" />
    <rect x="1380" y="580" width="70" height="260" rx="8" fill="url(#bar)" />
  </g>

  <g fill="#93c5fd" opacity="0.18">
    <circle cx="240" cy="200" r="3" />
    <circle cx="520" cy="140" r="2.5" />
    <circle cx="780" cy="240" r="3.5" />
    <circle cx="1040" cy="150" r="2.5" />
    <circle cx="1320" cy="230" r="3" />
    <circle cx="1480" cy="120" r="2" />
  </g>

  <g opacity="0.12" stroke="#bfdbfe" stroke-width="1.5" fill="none">
    <path d="M200 300 h1200" />
    <path d="M200 380 h1200" />
    <path d="M200 460 h1200" />
  </g>
</svg>
